# xmcd CD database file
#
# Track frame offsets:
#	150
#	14524
#	41803
#	55195
#	67910
#	80907
#	100557
#	115137
#	126878
#	139152
#	154209
#	169962
#	194265
#	203943
#
# Disc length: 2863 seconds
#
# Revision: 0
# Processed by: cddbd v1.5.2PL0 Copyright (c) Steve Scherf et al.
# Submitted via: CDex 1.70beta2
#
DISCID=c70b2d0e
DTITLE=Various Artist - Jazz FM91 Christmas
DYEAR=2006
DGENRE=Jazz
TTITLE0=The Christmas Song - Nat King Cole
TTITLE1=Christmas Time is Here - Vince Guaraldi Trio
TTITLE2=Jinge Bells - Diana Krall
TTITLE3=Silent Night - Benny Green
TTITLE4=Rudolph the Red Nosed Reindeer - Ella Fitzgerald
TTITLE5=Baby, It's Cold Outside - Emilie-Claire Barlow
TTITLE6=Christmas Is - Lou Rawls
TTITLE7=I'd Like You For Christmas - Julie London
TTITLE8=I've Got My Love To Keep Me Warm - D Martin
TTITLE9=Santa Baby - Sophie Millman
TTITLE10=Cool Yule - Kurt Elling
TTITLE11=I'll Be Home For Christmas - Dianne Reeves
TTITLE12=The Merriest - June Christy
TTITLE13=What Are You Doing New Year's Eve - N Willson
EXTD=YEAR: 2006
EXTT0=
EXTT1=
EXTT2=
EXTT3=
EXTT4=
EXTT5=
EXTT6=
EXTT7=
EXTT8=
EXTT9=
EXTT10=
EXTT11=
EXTT12=
EXTT13=
PLAYORDER=
